<svg width="200" height="200" viewBox="0 0 200 200" fill="none" xmlns="http://www.w3.org/2000/svg">
<g clip-path="url(#clip0_933_1909)">
<circle cx="100" cy="100" r="100" fill="url(#paint0_linear_933_1909)"/>
<mask id="mask0_933_1909" style="mask-type:alpha" maskUnits="userSpaceOnUse" x="40" y="40" width="111" height="105">
<path d="M48.9283 53.9191C42.5043 55.6404 38.692 62.2435 40.4133 68.6675L53.9191 119.072C55.6404 125.496 62.2435 129.308 68.6675 127.587L75 125.89V133C75 139.627 80.3726 145 87 145H139C145.627 145 151 139.627 151 133V81C151 74.3726 145.627 69 139 69H119.459L114.081 48.9283C112.36 42.5043 105.757 38.692 99.3325 40.4133L48.9283 53.9191Z" fill="white"/>
</mask>
<g mask="url(#mask0_933_1909)">
<g filter="url(#filter0_ii_933_1909)">
<rect x="75" y="69" width="76" height="76" rx="12" fill="url(#paint1_linear_933_1909)"/>
</g>
<g filter="url(#filter1_dd_933_1909)">
<path d="M40.4133 68.6675C38.692 62.2435 42.5043 55.6404 48.9283 53.9191L99.3325 40.4133C105.757 38.692 112.36 42.5043 114.081 48.9283L127.587 99.3325C129.308 105.757 125.496 112.36 119.072 114.081L68.6675 127.587C62.2435 129.308 55.6404 125.496 53.9191 119.072L40.4133 68.6675Z" fill="url(#paint2_linear_933_1909)"/>
</g>
</g>
</g>
<defs>
<filter id="filter0_ii_933_1909" x="75" y="69" width="76" height="79.208" filterUnits="userSpaceOnUse" color-interpolation-filters="sRGB">
<feFlood flood-opacity="0" result="BackgroundImageFix"/>
<feBlend mode="normal" in="SourceGraphic" in2="BackgroundImageFix" result="shape"/>
<feColorMatrix in="SourceAlpha" type="matrix" values="0 0 0 0 0 0 0 0 0 0 0 0 0 0 0 0 0 0 127 0" result="hardAlpha"/>
<feOffset dy="3.20797"/>
<feGaussianBlur stdDeviation="3.20797"/>
<feComposite in2="hardAlpha" operator="arithmetic" k2="-1" k3="1"/>
<feColorMatrix type="matrix" values="0 0 0 0 0.0666667 0 0 0 0 0.0627451 0 0 0 0 0.0588235 0 0 0 0.2 0"/>
<feBlend mode="normal" in2="shape" result="effect1_innerShadow_933_1909"/>
<feColorMatrix in="SourceAlpha" type="matrix" values="0 0 0 0 0 0 0 0 0 0 0 0 0 0 0 0 0 0 127 0" result="hardAlpha"/>
<feOffset dy="3.20797"/>
<feGaussianBlur stdDeviation="9.62392"/>
<feComposite in2="hardAlpha" operator="arithmetic" k2="-1" k3="1"/>
<feColorMatrix type="matrix" values="0 0 0 0 0.0666667 0 0 0 0 0.0627451 0 0 0 0 0.0588235 0 0 0 0.2 0"/>
<feBlend mode="normal" in2="effect1_innerShadow_933_1909" result="effect2_innerShadow_933_1909"/>
</filter>
<filter id="filter1_dd_933_1909" x="26" y="29" width="116" height="116" filterUnits="userSpaceOnUse" color-interpolation-filters="sRGB">
<feFlood flood-opacity="0" result="BackgroundImageFix"/>
<feColorMatrix in="SourceAlpha" type="matrix" values="0 0 0 0 0 0 0 0 0 0 0 0 0 0 0 0 0 0 127 0" result="hardAlpha"/>
<feOffset dy="3"/>
<feGaussianBlur stdDeviation="2.5"/>
<feComposite in2="hardAlpha" operator="out"/>
<feColorMatrix type="matrix" values="0 0 0 0 0.0666667 0 0 0 0 0.0627451 0 0 0 0 0.0588235 0 0 0 0.14 0"/>
<feBlend mode="normal" in2="BackgroundImageFix" result="effect1_dropShadow_933_1909"/>
<feColorMatrix in="SourceAlpha" type="matrix" values="0 0 0 0 0 0 0 0 0 0 0 0 0 0 0 0 0 0 127 0" result="hardAlpha"/>
<feOffset dy="3"/>
<feGaussianBlur stdDeviation="7"/>
<feComposite in2="hardAlpha" operator="out"/>
<feColorMatrix type="matrix" values="0 0 0 0 0.0666667 0 0 0 0 0.0627451 0 0 0 0 0.0588235 0 0 0 0.14 0"/>
<feBlend mode="normal" in2="effect1_dropShadow_933_1909" result="effect2_dropShadow_933_1909"/>
<feBlend mode="normal" in="SourceGraphic" in2="effect2_dropShadow_933_1909" result="shape"/>
</filter>
<linearGradient id="paint0_linear_933_1909" x1="63.241" y1="6.47349" x2="144.074" y2="200.112" gradientUnits="userSpaceOnUse">
<stop stop-color="#E0E0E0" stop-opacity="0.2"/>
<stop offset="1" stop-color="#6B6B6B" stop-opacity="0.2"/>
</linearGradient>
<linearGradient id="paint1_linear_933_1909" x1="143.5" y1="67" x2="86.3353" y2="147.098" gradientUnits="userSpaceOnUse">
<stop stop-color="#D2D0CE"/>
<stop offset="0.804744" stop-color="#B3B0AD"/>
</linearGradient>
<linearGradient id="paint2_linear_933_1909" x1="117.5" y1="52" x2="54.0419" y2="125.889" gradientUnits="userSpaceOnUse">
<stop offset="0.0508392" stop-color="#E1DFDD"/>
<stop offset="0.891905" stop-color="#C8C6C4"/>
</linearGradient>
<clipPath id="clip0_933_1909">
<rect width="200" height="200" fill="white"/>
</clipPath>
</defs>
</svg>
